<svg version="1.1" id="Layer_1" xmlns="http://www.w3.org/2000/svg" xmlns:xlink="http://www.w3.org/1999/xlink" x="0px" y="0px"
	 width="100%" viewBox="0 0 206 216" enable-background="new 0 0 206 216" xml:space="preserve">
<path fill="#010101" opacity="1.000000" stroke="none" 
	d="
M120.000000,217.000000 
	C80.000000,217.000000 40.500004,217.000000 1.000005,217.000000 
	C1.000004,145.000000 1.000004,73.000015 1.000002,1.000015 
	C69.666656,1.000010 138.333313,1.000010 206.999969,1.000005 
	C206.999985,72.999985 206.999985,144.999969 207.000000,216.999969 
	C178.166672,217.000000 149.333328,217.000000 120.000000,217.000000 
M67.754082,199.920288 
	C92.901245,202.127655 107.255127,193.046005 116.147202,169.559570 
	C116.577858,168.422089 118.757126,167.311493 120.149048,167.277054 
	C128.640778,167.067001 137.140320,167.164886 145.637222,167.175003 
	C150.134827,167.180344 154.655304,166.936798 159.124527,167.303925 
	C165.614639,167.837067 168.050980,172.434937 164.966873,177.724854 
	C161.744568,183.251801 162.817780,189.396072 167.707672,193.416214 
	C172.720047,197.537003 179.119919,197.398239 184.079941,193.061188 
	C188.451584,189.238663 189.274261,182.862564 186.319595,177.603683 
	C185.145157,175.513336 184.169937,173.210754 183.626968,170.882828 
	C180.853668,158.992523 171.780228,151.334106 159.478516,150.900620 
	C154.486282,150.724716 149.483673,150.834030 144.485779,150.829971 
	C135.549026,150.822723 126.612259,150.827942 117.590118,150.827942 
	C117.590118,142.183548 117.590118,134.133591 117.590118,125.744629 
	C124.534027,126.449074 131.139893,124.606972 137.643326,128.607574 
	C142.941116,131.866516 149.121460,129.418167 152.501694,124.443901 
	C155.988693,119.312500 155.590683,113.466469 151.440475,108.856483 
	C147.796844,104.809204 141.215393,103.132820 136.961456,106.230858 
	C130.664398,110.816849 124.042526,108.238403 117.729248,108.936874 
	C117.729248,100.270348 117.729248,92.227020 117.729248,84.003395 
	C132.692856,84.003395 147.179886,84.003387 161.666916,84.003426 
	C162.499954,84.003433 163.396912,83.804214 164.152512,84.046227 
	C165.658463,84.528534 167.201004,85.072357 168.527252,85.909462 
	C174.084381,89.417007 180.288315,88.765427 184.868195,84.058136 
	C188.682266,80.137955 189.218933,73.551163 186.107330,68.849396 
	C182.794449,63.843483 175.957947,61.265362 170.782623,64.495796 
	C164.294861,68.545425 157.719269,66.495712 150.666061,67.244873 
	C151.446503,59.576679 149.165543,52.246258 152.542267,45.261475 
	C154.716064,45.687241 156.445618,46.196617 158.204788,46.338295 
	C163.315308,46.749878 168.727951,43.349564 170.564224,38.729511 
	C172.566025,33.693008 171.010483,27.804312 166.743790,24.266760 
	C162.898849,21.078894 156.237961,20.438721 152.285919,23.547848 
	C147.882736,27.011885 143.485229,30.691628 139.962082,34.995285 
	C137.457367,38.054913 135.509140,42.163364 134.901718,46.051956 
	C133.836197,52.873112 133.989502,59.884655 133.635284,66.757515 
	C128.180206,66.757515 122.822258,66.757515 117.642937,66.757515 
	C117.235054,58.560463 117.781342,50.585724 116.263504,43.025375 
	C113.208664,27.809145 99.663551,17.404787 84.308899,17.184917 
	C69.433228,16.971907 56.284214,27.110676 51.768452,41.894978 
	C51.156635,43.898029 49.338608,46.066406 47.488583,47.074028 
	C30.984053,56.063248 22.171581,76.131935 26.763817,94.298935 
	C27.234016,96.159050 26.806917,98.873589 25.704908,100.407784 
	C12.713243,118.494522 15.020113,141.718979 31.398457,156.940796 
	C32.690632,158.141724 33.812012,160.113495 33.992222,161.833908 
	C36.021275,181.204376 47.990330,195.114731 67.754082,199.920288 
z"/>
<path fill="#FCFCFC" opacity="1.000000" stroke="none" 
	d="
M67.334732,199.857117 
	C47.990330,195.114731 36.021275,181.204376 33.992222,161.833908 
	C33.812012,160.113495 32.690632,158.141724 31.398457,156.940796 
	C15.020113,141.718979 12.713243,118.494522 25.704908,100.407784 
	C26.806917,98.873589 27.234016,96.159050 26.763817,94.298935 
	C22.171581,76.131935 30.984053,56.063248 47.488583,47.074028 
	C49.338608,46.066406 51.156635,43.898029 51.768452,41.894978 
	C56.284214,27.110676 69.433228,16.971907 84.308899,17.184917 
	C99.663551,17.404787 113.208664,27.809145 116.263504,43.025375 
	C117.781342,50.585724 117.235054,58.560463 117.642937,66.757515 
	C122.822258,66.757515 128.180206,66.757515 133.635284,66.757515 
	C133.989502,59.884655 133.836197,52.873112 134.901718,46.051956 
	C135.509140,42.163364 137.457367,38.054913 139.962082,34.995285 
	C143.485229,30.691628 147.882736,27.011885 152.285919,23.547848 
	C156.237961,20.438721 162.898849,21.078894 166.743790,24.266760 
	C171.010483,27.804312 172.566025,33.693008 170.564224,38.729511 
	C168.727951,43.349564 163.315308,46.749878 158.204788,46.338295 
	C156.445618,46.196617 154.716064,45.687241 152.542267,45.261475 
	C149.165543,52.246258 151.446503,59.576679 150.666061,67.244873 
	C157.719269,66.495712 164.294861,68.545425 170.782623,64.495796 
	C175.957947,61.265362 182.794449,63.843483 186.107330,68.849396 
	C189.218933,73.551163 188.682266,80.137955 184.868195,84.058136 
	C180.288315,88.765427 174.084381,89.417007 168.527252,85.909462 
	C167.201004,85.072357 165.658463,84.528534 164.152512,84.046227 
	C163.396912,83.804214 162.499954,84.003433 161.666916,84.003426 
	C147.179886,84.003387 132.692856,84.003395 117.729248,84.003395 
	C117.729248,92.227020 117.729248,100.270348 117.729248,108.936874 
	C124.042526,108.238403 130.664398,110.816849 136.961456,106.230858 
	C141.215393,103.132820 147.796844,104.809204 151.440475,108.856483 
	C155.590683,113.466469 155.988693,119.312500 152.501694,124.443901 
	C149.121460,129.418167 142.941116,131.866516 137.643326,128.607574 
	C131.139893,124.606972 124.534027,126.449074 117.590118,125.744629 
	C117.590118,134.133591 117.590118,142.183548 117.590118,150.827942 
	C126.612259,150.827942 135.549026,150.822723 144.485779,150.829971 
	C149.483673,150.834030 154.486282,150.724716 159.478516,150.900620 
	C171.780228,151.334106 180.853668,158.992523 183.626968,170.882828 
	C184.169937,173.210754 185.145157,175.513336 186.319595,177.603683 
	C189.274261,182.862564 188.451584,189.238663 184.079941,193.061188 
	C179.119919,197.398239 172.720047,197.537003 167.707672,193.416214 
	C162.817780,189.396072 161.744568,183.251801 164.966873,177.724854 
	C168.050980,172.434937 165.614639,167.837067 159.124527,167.303925 
	C154.655304,166.936798 150.134827,167.180344 145.637222,167.175003 
	C137.140320,167.164886 128.640778,167.067001 120.149048,167.277054 
	C118.757126,167.311493 116.577858,168.422089 116.147202,169.559570 
	C107.255127,193.046005 92.901245,202.127655 67.334732,199.857117 
M100.744995,143.492050 
	C100.744995,135.108719 100.744995,126.725380 100.744995,118.113770 
	C96.004333,120.582581 92.008400,122.919807 87.803017,124.784698 
	C83.193825,126.828659 78.473091,124.931747 76.523033,120.678741 
	C74.622955,116.534729 76.235878,112.375313 80.763710,109.845589 
	C81.773415,109.281464 82.859985,108.856804 83.895515,108.336769 
	C93.331551,103.598015 99.118645,96.208298 100.159149,85.528206 
	C100.544205,81.575844 100.716377,77.585602 100.694466,73.614243 
	C100.646751,64.967979 100.965271,56.266830 100.098854,47.692726 
	C99.223068,39.025940 90.506630,32.967690 82.170151,34.143738 
	C72.665443,35.484589 66.557365,43.026390 67.775993,52.295410 
	C68.158646,55.205971 69.367470,58.003700 70.144669,60.867588 
	C71.317787,65.190392 69.671959,68.640739 65.961517,70.551331 
	C62.187511,72.494652 58.485630,71.600037 55.797501,68.026146 
	C54.752560,66.636894 53.848515,65.141663 52.734035,63.476143 
	C45.977314,68.822006 42.924545,75.582367 42.204540,83.512009 
	C41.965401,86.145729 42.792324,87.859039 45.792576,89.032265 
	C52.293495,91.574402 52.921165,98.994713 47.351723,103.360939 
	C46.044403,104.385841 44.623764,105.269882 43.346172,106.328438 
	C28.501141,118.628502 31.457232,140.653229 49.137962,148.335815 
	C52.559139,149.822372 56.477695,150.215134 60.199558,150.945648 
	C64.645119,151.818207 67.315468,154.882416 67.151680,159.202087 
	C66.976784,163.814331 63.973415,166.861359 59.236511,167.092361 
	C56.979206,167.202454 54.712086,167.111282 52.374554,167.111282 
	C56.336407,178.249756 67.344826,185.221222 78.462410,183.803497 
	C90.316879,182.291840 99.442978,173.109985 100.316864,161.448792 
	C100.738983,155.815948 100.619377,150.142487 100.744995,143.492050 
z"/>
<path fill="#030303" opacity="1.000000" stroke="none" 
	d="
M100.745026,143.989746 
	C100.619377,150.142487 100.738983,155.815948 100.316864,161.448792 
	C99.442978,173.109985 90.316879,182.291840 78.462410,183.803497 
	C67.344826,185.221222 56.336407,178.249756 52.374554,167.111282 
	C54.712086,167.111282 56.979206,167.202454 59.236511,167.092361 
	C63.973415,166.861359 66.976784,163.814331 67.151680,159.202087 
	C67.315468,154.882416 64.645119,151.818207 60.199558,150.945648 
	C56.477695,150.215134 52.559139,149.822372 49.137962,148.335815 
	C31.457232,140.653229 28.501141,118.628502 43.346172,106.328438 
	C44.623764,105.269882 46.044403,104.385841 47.351723,103.360939 
	C52.921165,98.994713 52.293495,91.574402 45.792576,89.032265 
	C42.792324,87.859039 41.965401,86.145729 42.204540,83.512009 
	C42.924545,75.582367 45.977314,68.822006 52.734035,63.476143 
	C53.848515,65.141663 54.752560,66.636894 55.797501,68.026146 
	C58.485630,71.600037 62.187511,72.494652 65.961517,70.551331 
	C69.671959,68.640739 71.317787,65.190392 70.144669,60.867588 
	C69.367470,58.003700 68.158646,55.205971 67.775993,52.295410 
	C66.557365,43.026390 72.665443,35.484589 82.170151,34.143738 
	C90.506630,32.967690 99.223068,39.025940 100.098854,47.692726 
	C100.965271,56.266830 100.646751,64.967979 100.694466,73.614243 
	C100.716377,77.585602 100.544205,81.575844 100.159149,85.528206 
	C99.118645,96.208298 93.331551,103.598015 83.895515,108.336769 
	C82.859985,108.856804 81.773415,109.281464 80.763710,109.845589 
	C76.235878,112.375313 74.622955,116.534729 76.523033,120.678741 
	C78.473091,124.931747 83.193825,126.828659 87.803017,124.784698 
	C92.008400,122.919807 96.004333,120.582581 100.744995,118.113770 
	C100.744995,126.725380 100.744995,135.108719 100.745026,143.989746 
z"/>
</svg>